<svg xmlns="http://www.w3.org/2000/svg" style="display:none;" aria-hidden="true">
    <!-- Download (filled) -->
    <symbol id="utility-download" viewBox="0 0 24 24">
        <title>download</title>
        <path d="M19 9h-4V3H9v6H5l7 7 7-7z"/>
        <path d="M5 18v2h14v-2H5z"/>
    </symbol>

    <!-- Download (outline) -->
    <symbol id="utility-download-outline" viewBox="0 0 24 24">
        <title>download-outline</title>
        <path d="M12 3v10.5l4.5-4.5 1.41 1.41L12 17.33 5.09 10.41 6.5 9l4.5 4.5V3h1z"/>
        <path d="M5 18v2h14v-2H5z"/>
    </symbol>

    <!-- Search (magnifier) -->
    <symbol id="utility-search" viewBox="0 0 24 24">
        <title>search</title>
        <path d="M15.5 14h-.79l-.28-.27A6.471 6.471 0 0016 9.5 6.5 6.5 0 109.5 16c1.61 0 3.09-.59 4.23-1.57l.27.28v.79l5 4.99L20.49 19l-4.99-5zM10 14a4 4 0 110-8 4 4 0 010 8z"/>
    </symbol>

    <!-- Down (chevron) -->
    <symbol id="utility-down" viewBox="0 0 24 24">
        <title>down</title>
        <path d="M7.41 8.59L12 13.17l4.59-4.58L18 10l-6 6-6-6z"/>
    </symbol>

    <!-- Aliases without utility- prefix so existing templates that reference #search and #down work -->
    <symbol id="search" viewBox="0 0 24 24">
        <title>search</title>
        <path d="M15.5 14h-.79l-.28-.27A6.471 6.471 0 0016 9.5 6.5 6.5 0 109.5 16c1.61 0 3.09-.59 4.23-1.57l.27.28v.79l5 4.99L20.49 19l-4.99-5zM10 14a4 4 0 110-8 4 4 0 010 8z"/>
    </symbol>

    <symbol id="down" viewBox="0 0 24 24">
        <title>down</title>
        <path d="M7.41 8.59L12 13.17l4.59-4.58L18 10l-6 6-6-6z"/>
    </symbol>
</svg>